<svg xmlns="http://www.w3.org/2000/svg" width="18.5" height="18.5" viewBox="0 0 18.5 18.5"><defs><style>.a{fill:#272727;}</style></defs><g transform="translate(0 -0.008)"><path class="a" d="M285.233,209.164H277.91a.578.578,0,1,1,0-1.156h7.323a.578.578,0,1,1,0,1.156Zm0,0" transform="translate(-267.312 -200.484)"/><path class="a" d="M400.582,134.909a.578.578,0,0,1-.409-.987l2.482-2.482-2.482-2.482a.578.578,0,1,1,.818-.818l2.891,2.891a.578.578,0,0,1,0,.818l-2.891,2.891A.574.574,0,0,1,400.582,134.909Zm0,0" transform="translate(-385.551 -123.338)"/><path class="a" d="M6.166,18.508a1.588,1.588,0,0,1-.478-.072L1.05,16.891A1.556,1.556,0,0,1,0,15.425V1.55A1.543,1.543,0,0,1,1.541.008,1.59,1.59,0,0,1,2.019.08L6.658,1.625a1.556,1.556,0,0,1,1.05,1.466V16.966a1.543,1.543,0,0,1-1.542,1.542ZM1.541,1.164a.387.387,0,0,0-.385.385V15.425a.4.4,0,0,0,.267.371l4.617,1.539a.419.419,0,0,0,.126.017.386.386,0,0,0,.385-.385V3.091a.4.4,0,0,0-.267-.371L1.667,1.181a.418.418,0,0,0-.126-.017Zm0,0" transform="translate(0 0)"/><path class="a" d="M37.459,6.175a.578.578,0,0,1-.578-.578V2.128a.965.965,0,0,0-.963-.964H27.246a.578.578,0,1,1,0-1.156h8.672a2.121,2.121,0,0,1,2.12,2.12V5.6A.578.578,0,0,1,37.459,6.175Zm0,0" transform="translate(-25.705)"/><path class="a" d="M184.994,283.507H181.91a.578.578,0,0,1,0-1.156h3.083a.965.965,0,0,0,.963-.964v-3.469a.578.578,0,0,1,1.156,0v3.469A2.121,2.121,0,0,1,184.994,283.507Zm0,0" transform="translate(-174.78 -267.311)"/></g></svg>